<svg width="1200" height="800" viewBox="0 0 1200 800" fill="none" xmlns="http://www.w3.org/2000/svg">
  <defs>
    <linearGradient id="bg3" x1="0" y1="0" x2="1200" y2="800" gradientUnits="userSpaceOnUse">
      <stop stop-color="#100D0A"/>
      <stop offset="1" stop-color="#1F1711"/>
    </linearGradient>
  </defs>

  <rect width="1200" height="800" rx="28" fill="url(#bg3)"/>
  <text x="600" y="92" fill="#F0E0C4" font-size="44" text-anchor="middle" font-family="Georgia, serif">Long-Horizon Layer</text>

  <rect x="120" y="180" width="280" height="410" rx="16" fill="#19140F" stroke="#C9A15A"/>
  <text x="260" y="248" fill="#EFD7AF" font-size="34" text-anchor="middle" font-family="Georgia, serif">MindStamp</text>
  <text x="260" y="292" fill="#B9AD9A" font-size="22" text-anchor="middle" font-family="Georgia, serif">insights capture</text>
  <circle cx="260" cy="390" r="74" stroke="rgba(201,161,90,0.65)" stroke-width="3"/>
  <text x="260" y="398" fill="#EFD7AF" font-size="26" text-anchor="middle" font-family="Georgia, serif">Idea</text>

  <rect x="460" y="180" width="280" height="410" rx="16" fill="#1E170F" stroke="#C9A15A" stroke-width="2"/>
  <text x="600" y="248" fill="#F0E0C4" font-size="34" text-anchor="middle" font-family="Georgia, serif">Suspense Box</text>
  <text x="600" y="292" fill="#D5BC8D" font-size="22" text-anchor="middle" font-family="Georgia, serif">deliberate suspension</text>
  <rect x="520" y="350" width="160" height="96" rx="12" fill="#16110C" stroke="rgba(201,161,90,0.5)"/>
  <text x="600" y="408" fill="#EFD7AF" font-size="24" text-anchor="middle" font-family="Georgia, serif">Queued</text>

  <rect x="800" y="180" width="280" height="410" rx="16" fill="#19140F" stroke="#C9A15A"/>
  <text x="940" y="248" fill="#EFD7AF" font-size="34" text-anchor="middle" font-family="Georgia, serif">Projects</text>
  <text x="940" y="292" fill="#B9AD9A" font-size="22" text-anchor="middle" font-family="Georgia, serif">multi-week missions</text>
  <path d="M860 370H1020" stroke="rgba(201,161,90,0.5)" stroke-width="2"/>
  <path d="M860 420H995" stroke="rgba(201,161,90,0.5)" stroke-width="2"/>
  <path d="M860 470H1035" stroke="rgba(201,161,90,0.5)" stroke-width="2"/>

  <path d="M400 390 H455" stroke="#C9A15A" stroke-width="6" stroke-linecap="round"/>
  <polygon points="455,390 440,382 440,398" fill="#C9A15A"/>
  <path d="M740 390 H795" stroke="#C9A15A" stroke-width="6" stroke-linecap="round"/>
  <polygon points="795,390 780,382 780,398" fill="#C9A15A"/>

  <rect x="220" y="650" width="760" height="92" rx="12" fill="#140F0B" stroke="rgba(201,161,90,0.6)"/>
  <text x="600" y="705" fill="#F0E0C4" font-size="30" text-anchor="middle" font-family="Georgia, serif">All long-term modules still obey daily commitment rules</text>
</svg>
